<svg xmlns="http://www.w3.org/2000/svg" xmlns:xlink="http://www.w3.org/1999/xlink" width="128" height="128" viewBox="0 0 128 128">
  <defs>
    <clipPath id="clip-Artboard_1">
      <rect width="128" height="128"/>
    </clipPath>
  </defs>
  <g id="Artboard_1" data-name="Artboard – 1" clip-path="url(#clip-Artboard_1)">
    <g id="durian_transparent" transform="translate(-5386.496 -8381.848)">
      <path id="Path_84" data-name="Path 84" d="M9401.76,14817.7l-.322-7.737a4.868,4.868,0,0,1,3.464-2.284,5.939,5.939,0,0,1,3.981,1.694v8.917C9408.88,14820.1,9401.76,14817.7,9401.76,14817.7Z" transform="translate(-3955 -6400)" fill="#c99975" stroke="#0b0000" stroke-width="1"/>
      <path id="Path_73" data-name="Path 73" d="M9368.93,14878.7l16.627,1.474a94.192,94.192,0,0,0,21.168,2.966c8.776.064,17.757-2.647,19.032-2.966,2.736-.684,16.838-1.474,16.838-1.474l-4.256-15.2,12.464-10.9-12.417-10.1,4.209-16.417h-16.838l-5.864-15.969-14.085,8.257-14.086-8.257-6.165,14.733-16.627,1.235,4.336,15.278-12.629,11.241,12.629,10.1Z" transform="translate(-3955 -6400)" fill="#bad52e" stroke="#100700" stroke-width="1"/>
      <path id="Path_87" data-name="Path 87" d="M9406.45,14875.4h2.521" transform="translate(-3955 -6400)" fill="none" stroke="#0f0b0a" stroke-width="1"/>
      <path id="Path_88" data-name="Path 88" d="M9396.59,14852.4l5.453,6.927" transform="translate(-3955 -6400)" fill="none" stroke="#000" stroke-width="1"/>
      <path id="Path_89" data-name="Path 89" d="M9416.64,14852.1l-3.979,7.295" transform="translate(-3955 -6400)" fill="none" stroke="#040300" stroke-width="1"/>
      <path id="Path_90" data-name="Path 90" d="M9388.43,14858.2c-3.546.383-2.807,4.483,0,6.405s8.692,2.623,11.225,1.282,4.6-4.049,1.247-5.363S9391.98,14857.8,9388.43,14858.2Z" transform="translate(-3955 -6400)" fill="#fafcee" stroke="#0e0000" stroke-width="1"/>
      <path id="Path_91" data-name="Path 91" d="M9411.28,14861.6c-.729,1.328.782,4.466,4.081,4.705,3.055.225,8.04-2.606,9.07-4.025a4.854,4.854,0,0,0-.511-6.291C9423.01,14855.3,9412.82,14858.8,9411.28,14861.6Z" transform="translate(-3955 -6400)" fill="#fafcee" stroke="#090300" stroke-width="1"/>
      <path id="Path_108" data-name="Path 108" d="M9373.65,14863.2s8.48.266,12.863,4.648,5.079,12.839,5.079,12.839l-22-2.487Z" transform="translate(-3955 -6400)" fill="#b2c633"/>
      <path id="Path_109" data-name="Path 109" d="M9373.69,14841.4s6.641,6.435,7.072,11.272-6.9,10.442-6.9,10.442l-12.472-10.771Z" transform="translate(-3955 -6400)" fill="#b2c633"/>
      <path id="Path_117" data-name="Path 117" d="M9421.82,14844.5c.343,1.837,5.739,2.627,9.631,1.908a11.454,11.454,0,0,0,6.268-3.686l-7.638-3.663S9421.48,14842.7,9421.82,14844.5Z" transform="translate(-3955 -6400)" fill="#cad948"/>
      <path id="Path_112" data-name="Path 112" d="M9416.21,14832.8s-.382,13.758,5.653,12.264,20.089-18.5,20.089-18.5H9425.38l-3.724-9.962Z" transform="translate(-3955 -6400)" fill="#b2c633"/>
      <path id="Path_115" data-name="Path 115" d="M9374.04,14841.5s4.47,4.894,8.22,6.114,6.355-3.112,6.355-3.112l-5.086-8.889-13.929-9.14Z" transform="translate(-3955 -6400)" fill="#cad948"/>
      <path id="Path_110" data-name="Path 110" d="M9369.62,14826.5s12.015,15.6,18.08,17.889c2.948,1.112,7.018-2.016,5.612-7.256-1.326-4.945-7.437-11.863-7.437-11.863Z" transform="translate(-3955 -6400)" fill="#b2c633"/>
      <path id="Path_116" data-name="Path 116" d="M9424.11,14828.1c-2.344,5.112-12.069,6.338-12.069,6.338l7.706-23.548,3.422,9.728S9425.09,14826,9424.11,14828.1Z" transform="translate(-3955 -6400)" fill="#cad948"/>
      <path id="Path_111" data-name="Path 111" d="M9391.97,14810.8s-1.5,10.847,1.914,18.906c2.514,5.928,9.8,8.813,12.837,8.813,8.526,0,12.51-12.329,12.988-27.754l-13.853,8.117Z" transform="translate(-3955 -6400)" fill="#b2c633"/>
      <path id="Path_74" data-name="Path 74" d="M9380.87,14846.6l-.971-15.665,15.7,1.943,10.848-12.3,9.552,12.3,17-1.943-1.134,15.665" transform="translate(-3955 -6400)" fill="none" stroke="#0f0b0a" stroke-width="1"/>
      <path id="Path_113" data-name="Path 113" d="M9420.99,14880.8s.012-7.243,4.322-11.626,12.55-5.581,12.55-5.581l3.991,14.456-13.476,1.184Z" transform="translate(-3955 -6400)" fill="#b2c535"/>
      <path id="Path_114" data-name="Path 114" d="M9437.82,14863.3s-5.618-5.291-5.618-10.561,5.618-10.034,5.618-10.034l12.143,9.861Z" transform="translate(-3955 -6400)" fill="#b2c535"/>
      <path id="Path_123" data-name="Path 123" d="M3.5,0A3.5,3.5,0,1,1,0,3.5,3.5,3.5,0,0,1,3.5,0Z" transform="translate(5448 8457)" fill="#b2c535"/>
      <g id="Path_122" data-name="Path 122" transform="translate(5438 8460)">
        <path id="Path_1" data-name="Path 1" d="M2,3.5A1.5,1.5,0,1,1,3.5,2,1.5,1.5,0,0,1,2,3.5Z" fill="#0b0600"/>
        <path id="Path_2" data-name="Path 2" d="M2,1A1,1,0,1,0,3,2,1,1,0,0,0,2,1M2,0A2,2,0,1,1,0,2,2,2,0,0,1,2,0Z" fill="#0b0600"/>
      </g>
      <g id="Path_121" data-name="Path 121" transform="translate(5460 8460)">
        <path id="Path_3" data-name="Path 3" d="M2,3.5A1.5,1.5,0,1,1,3.5,2,1.5,1.5,0,0,1,2,3.5Z" fill="#070300"/>
        <path id="Path_4" data-name="Path 4" d="M2,1A1,1,0,1,0,3,2,1,1,0,0,0,2,1M2,0A2,2,0,1,1,0,2,2,2,0,0,1,2,0Z" fill="#070300"/>
      </g>
      <path id="Path_118" data-name="Path 118" d="M9389.15,14858l5.93,2.529,4.229-.523Z" transform="translate(-3955 -6400)" fill="#040100" stroke="#060200" stroke-width="1"/>
      <path id="Path_119" data-name="Path 119" d="M9411.52,14861l5.1-.654,5.363-4.187Z" transform="translate(-3955 -6400)" stroke="#080400" stroke-width="1"/>
    </g>
  </g>
</svg>
